<svg width="322" height="329" viewBox="0 0 322 329" fill="none" xmlns="http://www.w3.org/2000/svg">
<g filter="url(#filter0_d_11310_29)">
<rect x="26" y="26" width="262" height="269" rx="30" fill="#0B0F15"/>
<rect x="26.5" y="26.5" width="261" height="268" rx="29.5" stroke="white" stroke-opacity="0.1"/>
</g>
<path d="M90.212 219.24C89.092 219.24 88.084 219.104 87.188 218.832C86.292 218.544 85.436 218.048 84.62 217.344C84.412 217.168 84.252 216.968 84.14 216.744C84.028 216.52 83.972 216.296 83.972 216.072C83.972 215.704 84.1 215.384 84.356 215.112C84.628 214.824 84.964 214.68 85.364 214.68C85.668 214.68 85.94 214.776 86.18 214.968C86.788 215.464 87.388 215.84 87.98 216.096C88.588 216.352 89.332 216.48 90.212 216.48C90.804 216.48 91.348 216.392 91.844 216.216C92.34 216.024 92.74 215.776 93.044 215.472C93.348 215.152 93.5 214.792 93.5 214.392C93.5 213.912 93.356 213.504 93.068 213.168C92.78 212.832 92.34 212.552 91.748 212.328C91.156 212.088 90.404 211.904 89.492 211.776C88.628 211.648 87.868 211.456 87.212 211.2C86.556 210.928 86.004 210.592 85.556 210.192C85.124 209.776 84.796 209.296 84.572 208.752C84.348 208.192 84.236 207.568 84.236 206.88C84.236 205.84 84.5 204.952 85.028 204.216C85.572 203.48 86.3 202.92 87.212 202.536C88.124 202.152 89.132 201.96 90.236 201.96C91.276 201.96 92.236 202.12 93.116 202.44C94.012 202.744 94.74 203.136 95.3 203.616C95.764 203.984 95.996 204.408 95.996 204.888C95.996 205.24 95.86 205.56 95.588 205.848C95.316 206.136 94.996 206.28 94.628 206.28C94.388 206.28 94.172 206.208 93.98 206.064C93.724 205.84 93.38 205.632 92.948 205.44C92.516 205.232 92.06 205.064 91.58 204.936C91.1 204.792 90.652 204.72 90.236 204.72C89.548 204.72 88.964 204.808 88.484 204.984C88.02 205.16 87.668 205.4 87.428 205.704C87.188 206.008 87.068 206.36 87.068 206.76C87.068 207.24 87.204 207.64 87.476 207.96C87.764 208.264 88.172 208.512 88.7 208.704C89.228 208.88 89.86 209.04 90.596 209.184C91.556 209.36 92.396 209.568 93.116 209.808C93.852 210.048 94.46 210.36 94.94 210.744C95.42 211.112 95.78 211.584 96.02 212.16C96.26 212.72 96.38 213.408 96.38 214.224C96.38 215.264 96.092 216.16 95.516 216.912C94.94 217.664 94.18 218.24 93.236 218.64C92.308 219.04 91.3 219.24 90.212 219.24ZM111.588 212.592C111.588 213.904 111.292 215.064 110.7 216.072C110.124 217.064 109.34 217.84 108.348 218.4C107.372 218.96 106.276 219.24 105.06 219.24C103.844 219.24 102.74 218.96 101.748 218.4C100.772 217.84 99.9883 217.064 99.3963 216.072C98.8203 215.064 98.5323 213.904 98.5323 212.592C98.5323 211.28 98.8203 210.128 99.3963 209.136C99.9883 208.128 100.772 207.344 101.748 206.784C102.74 206.208 103.844 205.92 105.06 205.92C106.276 205.92 107.372 206.208 108.348 206.784C109.34 207.344 110.124 208.128 110.7 209.136C111.292 210.128 111.588 211.28 111.588 212.592ZM108.708 212.592C108.708 211.776 108.54 211.072 108.204 210.48C107.884 209.872 107.444 209.4 106.884 209.064C106.34 208.728 105.732 208.56 105.06 208.56C104.388 208.56 103.772 208.728 103.212 209.064C102.668 209.4 102.228 209.872 101.892 210.48C101.572 211.072 101.412 211.776 101.412 212.592C101.412 213.392 101.572 214.096 101.892 214.704C102.228 215.296 102.668 215.76 103.212 216.096C103.772 216.432 104.388 216.6 105.06 216.6C105.732 216.6 106.34 216.432 106.884 216.096C107.444 215.76 107.884 215.296 108.204 214.704C108.54 214.096 108.708 213.392 108.708 212.592ZM120.061 205.92C120.973 205.92 121.765 206.016 122.437 206.208C123.125 206.4 123.653 206.672 124.021 207.024C124.405 207.36 124.597 207.768 124.597 208.248C124.597 208.568 124.501 208.872 124.309 209.16C124.117 209.432 123.837 209.568 123.469 209.568C123.213 209.568 122.997 209.536 122.821 209.472C122.661 209.392 122.517 209.296 122.389 209.184C122.261 209.072 122.109 208.968 121.933 208.872C121.773 208.776 121.525 208.704 121.189 208.656C120.869 208.592 120.629 208.56 120.469 208.56C119.653 208.56 118.957 208.736 118.381 209.088C117.821 209.44 117.389 209.92 117.085 210.528C116.781 211.12 116.629 211.808 116.629 212.592C116.629 213.36 116.781 214.048 117.085 214.656C117.405 215.248 117.837 215.72 118.381 216.072C118.941 216.424 119.581 216.6 120.301 216.6C120.701 216.6 121.045 216.576 121.333 216.528C121.621 216.48 121.861 216.408 122.053 216.312C122.277 216.184 122.477 216.048 122.653 215.904C122.829 215.76 123.093 215.688 123.445 215.688C123.861 215.688 124.181 215.824 124.405 216.096C124.629 216.352 124.741 216.672 124.741 217.056C124.741 217.456 124.517 217.824 124.069 218.16C123.621 218.48 123.029 218.744 122.293 218.952C121.573 219.144 120.789 219.24 119.941 219.24C118.677 219.24 117.581 218.952 116.653 218.376C115.725 217.784 115.005 216.984 114.493 215.976C113.997 214.968 113.749 213.84 113.749 212.592C113.749 211.28 114.013 210.128 114.541 209.136C115.085 208.128 115.829 207.344 116.773 206.784C117.733 206.208 118.829 205.92 120.061 205.92ZM129.77 217.536C129.77 217.952 129.634 218.304 129.362 218.592C129.09 218.864 128.746 219 128.33 219C127.914 219 127.57 218.864 127.298 218.592C127.026 218.304 126.89 217.952 126.89 217.536V207.624C126.89 207.208 127.026 206.864 127.298 206.592C127.57 206.304 127.914 206.16 128.33 206.16C128.746 206.16 129.09 206.304 129.362 206.592C129.634 206.864 129.77 207.208 129.77 207.624V217.536ZM128.306 204.6C127.762 204.6 127.378 204.512 127.154 204.336C126.93 204.16 126.818 203.848 126.818 203.4V202.944C126.818 202.48 126.938 202.168 127.178 202.008C127.434 201.832 127.818 201.744 128.33 201.744C128.89 201.744 129.282 201.832 129.506 202.008C129.73 202.184 129.842 202.496 129.842 202.944V203.4C129.842 203.864 129.722 204.184 129.482 204.36C129.242 204.52 128.85 204.6 128.306 204.6ZM143.482 205.92C143.898 205.92 144.242 206.056 144.514 206.328C144.786 206.6 144.922 206.952 144.922 207.384V217.536C144.922 217.952 144.786 218.304 144.514 218.592C144.242 218.864 143.898 219 143.482 219C143.066 219 142.722 218.864 142.45 218.592C142.178 218.304 142.042 217.952 142.042 217.536V216.36L142.57 216.576C142.57 216.784 142.458 217.04 142.234 217.344C142.01 217.632 141.706 217.92 141.322 218.208C140.938 218.496 140.482 218.744 139.954 218.952C139.442 219.144 138.882 219.24 138.274 219.24C137.17 219.24 136.17 218.96 135.274 218.4C134.378 217.824 133.666 217.04 133.138 216.048C132.626 215.04 132.37 213.888 132.37 212.592C132.37 211.28 132.626 210.128 133.138 209.136C133.666 208.128 134.37 207.344 135.25 206.784C136.13 206.208 137.106 205.92 138.178 205.92C138.866 205.92 139.498 206.024 140.074 206.232C140.65 206.44 141.146 206.704 141.562 207.024C141.994 207.344 142.322 207.672 142.546 208.008C142.786 208.328 142.906 208.6 142.906 208.824L142.042 209.136V207.384C142.042 206.968 142.178 206.624 142.45 206.352C142.722 206.064 143.066 205.92 143.482 205.92ZM138.634 216.6C139.338 216.6 139.954 216.424 140.482 216.072C141.01 215.72 141.418 215.24 141.706 214.632C142.01 214.024 142.162 213.344 142.162 212.592C142.162 211.824 142.01 211.136 141.706 210.528C141.418 209.92 141.01 209.44 140.482 209.088C139.954 208.736 139.338 208.56 138.634 208.56C137.946 208.56 137.338 208.736 136.81 209.088C136.282 209.44 135.866 209.92 135.562 210.528C135.274 211.136 135.13 211.824 135.13 212.592C135.13 213.344 135.274 214.024 135.562 214.632C135.866 215.24 136.282 215.72 136.81 216.072C137.338 216.424 137.946 216.6 138.634 216.6ZM151.4 217.536C151.4 217.952 151.256 218.304 150.968 218.592C150.696 218.864 150.352 219 149.936 219C149.536 219 149.2 218.864 148.928 218.592C148.656 218.304 148.52 217.952 148.52 217.536V202.704C148.52 202.288 148.656 201.944 148.928 201.672C149.216 201.384 149.568 201.24 149.984 201.24C150.4 201.24 150.736 201.384 150.992 201.672C151.264 201.944 151.4 202.288 151.4 202.704V217.536ZM163.707 202.176C163.931 202.176 164.163 202.24 164.403 202.368C164.659 202.48 164.851 202.632 164.979 202.824L170.811 211.8L169.611 211.752L175.587 202.824C175.891 202.392 176.283 202.176 176.763 202.176C177.147 202.176 177.491 202.312 177.795 202.584C178.099 202.856 178.251 203.208 178.251 203.64V217.536C178.251 217.952 178.115 218.304 177.843 218.592C177.571 218.864 177.211 219 176.763 219C176.315 219 175.947 218.864 175.659 218.592C175.387 218.304 175.251 217.952 175.251 217.536V206.232L176.187 206.448L171.291 213.912C171.147 214.088 170.963 214.24 170.739 214.368C170.531 214.496 170.315 214.552 170.091 214.536C169.883 214.552 169.667 214.496 169.443 214.368C169.235 214.24 169.059 214.088 168.915 213.912L164.331 206.664L164.955 205.392V217.536C164.955 217.952 164.827 218.304 164.571 218.592C164.315 218.864 163.979 219 163.563 219C163.163 219 162.835 218.864 162.579 218.592C162.323 218.304 162.195 217.952 162.195 217.536V203.64C162.195 203.24 162.339 202.896 162.627 202.608C162.931 202.32 163.291 202.176 163.707 202.176ZM187.907 219.24C186.547 219.24 185.363 218.96 184.355 218.4C183.363 217.824 182.595 217.048 182.051 216.072C181.523 215.096 181.259 213.992 181.259 212.76C181.259 211.32 181.547 210.096 182.123 209.088C182.715 208.064 183.483 207.28 184.427 206.736C185.371 206.192 186.371 205.92 187.427 205.92C188.243 205.92 189.011 206.088 189.731 206.424C190.467 206.76 191.115 207.224 191.675 207.816C192.235 208.392 192.675 209.064 192.995 209.832C193.331 210.6 193.499 211.416 193.499 212.28C193.483 212.664 193.331 212.976 193.043 213.216C192.755 213.456 192.419 213.576 192.035 213.576H182.867L182.147 211.176H190.955L190.427 211.656V211.008C190.395 210.544 190.227 210.128 189.923 209.76C189.635 209.392 189.267 209.104 188.819 208.896C188.387 208.672 187.923 208.56 187.427 208.56C186.947 208.56 186.499 208.624 186.083 208.752C185.667 208.88 185.307 209.096 185.003 209.4C184.699 209.704 184.459 210.112 184.283 210.624C184.107 211.136 184.019 211.784 184.019 212.568C184.019 213.432 184.195 214.168 184.547 214.776C184.915 215.368 185.379 215.824 185.939 216.144C186.515 216.448 187.123 216.6 187.763 216.6C188.355 216.6 188.827 216.552 189.179 216.456C189.531 216.36 189.811 216.248 190.019 216.12C190.243 215.976 190.443 215.856 190.619 215.76C190.907 215.616 191.179 215.544 191.435 215.544C191.787 215.544 192.075 215.664 192.299 215.904C192.539 216.144 192.659 216.424 192.659 216.744C192.659 217.176 192.435 217.568 191.987 217.92C191.571 218.272 190.987 218.584 190.235 218.856C189.483 219.112 188.707 219.24 187.907 219.24ZM206.767 201.24C207.183 201.24 207.527 201.376 207.799 201.648C208.071 201.92 208.207 202.272 208.207 202.704V217.536C208.207 217.952 208.071 218.304 207.799 218.592C207.527 218.864 207.183 219 206.767 219C206.351 219 206.007 218.864 205.735 218.592C205.463 218.304 205.327 217.952 205.327 217.536V216.36L205.855 216.576C205.855 216.784 205.743 217.04 205.519 217.344C205.295 217.632 204.991 217.92 204.607 218.208C204.223 218.496 203.767 218.744 203.239 218.952C202.727 219.144 202.167 219.24 201.559 219.24C200.455 219.24 199.455 218.96 198.559 218.4C197.663 217.824 196.951 217.04 196.423 216.048C195.911 215.04 195.655 213.888 195.655 212.592C195.655 211.28 195.911 210.128 196.423 209.136C196.951 208.128 197.655 207.344 198.535 206.784C199.415 206.208 200.391 205.92 201.463 205.92C202.151 205.92 202.783 206.024 203.359 206.232C203.935 206.44 204.431 206.704 204.847 207.024C205.279 207.344 205.607 207.672 205.831 208.008C206.071 208.328 206.191 208.6 206.191 208.824L205.327 209.136V202.704C205.327 202.288 205.463 201.944 205.735 201.672C206.007 201.384 206.351 201.24 206.767 201.24ZM201.919 216.6C202.623 216.6 203.239 216.424 203.767 216.072C204.295 215.72 204.703 215.24 204.991 214.632C205.295 214.024 205.447 213.344 205.447 212.592C205.447 211.824 205.295 211.136 204.991 210.528C204.703 209.92 204.295 209.44 203.767 209.088C203.239 208.736 202.623 208.56 201.919 208.56C201.231 208.56 200.623 208.736 200.095 209.088C199.567 209.44 199.151 209.92 198.847 210.528C198.559 211.136 198.415 211.824 198.415 212.592C198.415 213.344 198.559 214.024 198.847 214.632C199.151 215.24 199.567 215.72 200.095 216.072C200.623 216.424 201.231 216.6 201.919 216.6ZM214.278 217.536C214.278 217.952 214.142 218.304 213.87 218.592C213.598 218.864 213.254 219 212.838 219C212.422 219 212.078 218.864 211.806 218.592C211.534 218.304 211.398 217.952 211.398 217.536V207.624C211.398 207.208 211.534 206.864 211.806 206.592C212.078 206.304 212.422 206.16 212.838 206.16C213.254 206.16 213.598 206.304 213.87 206.592C214.142 206.864 214.278 207.208 214.278 207.624V217.536ZM212.814 204.6C212.27 204.6 211.886 204.512 211.662 204.336C211.438 204.16 211.326 203.848 211.326 203.4V202.944C211.326 202.48 211.446 202.168 211.686 202.008C211.942 201.832 212.326 201.744 212.838 201.744C213.398 201.744 213.79 201.832 214.014 202.008C214.238 202.184 214.35 202.496 214.35 202.944V203.4C214.35 203.864 214.23 204.184 213.99 204.36C213.75 204.52 213.358 204.6 212.814 204.6ZM227.99 205.92C228.406 205.92 228.75 206.056 229.022 206.328C229.294 206.6 229.43 206.952 229.43 207.384V217.536C229.43 217.952 229.294 218.304 229.022 218.592C228.75 218.864 228.406 219 227.99 219C227.574 219 227.23 218.864 226.958 218.592C226.686 218.304 226.55 217.952 226.55 217.536V216.36L227.078 216.576C227.078 216.784 226.966 217.04 226.742 217.344C226.518 217.632 226.214 217.92 225.83 218.208C225.446 218.496 224.99 218.744 224.462 218.952C223.95 219.144 223.39 219.24 222.782 219.24C221.678 219.24 220.678 218.96 219.782 218.4C218.886 217.824 218.174 217.04 217.646 216.048C217.134 215.04 216.878 213.888 216.878 212.592C216.878 211.28 217.134 210.128 217.646 209.136C218.174 208.128 218.878 207.344 219.758 206.784C220.638 206.208 221.614 205.92 222.686 205.92C223.374 205.92 224.006 206.024 224.582 206.232C225.158 206.44 225.654 206.704 226.07 207.024C226.502 207.344 226.83 207.672 227.054 208.008C227.294 208.328 227.414 208.6 227.414 208.824L226.55 209.136V207.384C226.55 206.968 226.686 206.624 226.958 206.352C227.23 206.064 227.574 205.92 227.99 205.92ZM223.142 216.6C223.846 216.6 224.462 216.424 224.99 216.072C225.518 215.72 225.926 215.24 226.214 214.632C226.518 214.024 226.67 213.344 226.67 212.592C226.67 211.824 226.518 211.136 226.214 210.528C225.926 209.92 225.518 209.44 224.99 209.088C224.462 208.736 223.846 208.56 223.142 208.56C222.454 208.56 221.846 208.736 221.318 209.088C220.79 209.44 220.374 209.92 220.07 210.528C219.782 211.136 219.638 211.824 219.638 212.592C219.638 213.344 219.782 214.024 220.07 214.632C220.374 215.24 220.79 215.72 221.318 216.072C221.846 216.424 222.454 216.6 223.142 216.6ZM82.4859 236.176C82.7099 236.176 82.9419 236.24 83.1819 236.368C83.4379 236.48 83.6299 236.632 83.7579 236.824L89.5899 245.8L88.3899 245.752L94.3659 236.824C94.6699 236.392 95.0619 236.176 95.5419 236.176C95.9259 236.176 96.2699 236.312 96.5739 236.584C96.8779 236.856 97.0299 237.208 97.0299 237.64V251.536C97.0299 251.952 96.8939 252.304 96.6219 252.592C96.3499 252.864 95.9899 253 95.5419 253C95.0939 253 94.7259 252.864 94.4379 252.592C94.1659 252.304 94.0299 251.952 94.0299 251.536V240.232L94.9659 240.448L90.0699 247.912C89.9259 248.088 89.7419 248.24 89.5179 248.368C89.3099 248.496 89.0939 248.552 88.8699 248.536C88.6619 248.552 88.4459 248.496 88.2219 248.368C88.0139 248.24 87.8379 248.088 87.6939 247.912L83.1099 240.664L83.7339 239.392V251.536C83.7339 251.952 83.6059 252.304 83.3499 252.592C83.0939 252.864 82.7579 253 82.3419 253C81.9419 253 81.6139 252.864 81.3579 252.592C81.1019 252.304 80.9739 251.952 80.9739 251.536V237.64C80.9739 237.24 81.1179 236.896 81.4059 236.608C81.7099 236.32 82.0699 236.176 82.4859 236.176ZM111.15 239.92C111.566 239.92 111.91 240.056 112.182 240.328C112.454 240.6 112.59 240.952 112.59 241.384V251.536C112.59 251.952 112.454 252.304 112.182 252.592C111.91 252.864 111.566 253 111.15 253C110.734 253 110.39 252.864 110.118 252.592C109.846 252.304 109.71 251.952 109.71 251.536V250.36L110.238 250.576C110.238 250.784 110.126 251.04 109.902 251.344C109.678 251.632 109.374 251.92 108.99 252.208C108.606 252.496 108.15 252.744 107.622 252.952C107.11 253.144 106.55 253.24 105.942 253.24C104.838 253.24 103.838 252.96 102.942 252.4C102.046 251.824 101.334 251.04 100.806 250.048C100.294 249.04 100.038 247.888 100.038 246.592C100.038 245.28 100.294 244.128 100.806 243.136C101.334 242.128 102.038 241.344 102.918 240.784C103.798 240.208 104.774 239.92 105.846 239.92C106.534 239.92 107.166 240.024 107.742 240.232C108.318 240.44 108.814 240.704 109.23 241.024C109.662 241.344 109.99 241.672 110.214 242.008C110.454 242.328 110.574 242.6 110.574 242.824L109.71 243.136V241.384C109.71 240.968 109.846 240.624 110.118 240.352C110.39 240.064 110.734 239.92 111.15 239.92ZM106.302 250.6C107.006 250.6 107.622 250.424 108.15 250.072C108.678 249.72 109.086 249.24 109.374 248.632C109.678 248.024 109.83 247.344 109.83 246.592C109.83 245.824 109.678 245.136 109.374 244.528C109.086 243.92 108.678 243.44 108.15 243.088C107.622 242.736 107.006 242.56 106.302 242.56C105.614 242.56 105.006 242.736 104.478 243.088C103.95 243.44 103.534 243.92 103.23 244.528C102.942 245.136 102.798 245.824 102.798 246.592C102.798 247.344 102.942 248.024 103.23 248.632C103.534 249.24 103.95 249.72 104.478 250.072C105.006 250.424 105.614 250.6 106.302 250.6ZM122.812 239.92C123.996 239.92 124.892 240.168 125.5 240.664C126.124 241.16 126.548 241.824 126.772 242.656C127.012 243.472 127.132 244.384 127.132 245.392V251.536C127.132 251.952 126.996 252.304 126.724 252.592C126.452 252.864 126.108 253 125.692 253C125.276 253 124.932 252.864 124.66 252.592C124.388 252.304 124.252 251.952 124.252 251.536V245.392C124.252 244.864 124.18 244.392 124.036 243.976C123.908 243.544 123.668 243.2 123.316 242.944C122.964 242.688 122.46 242.56 121.804 242.56C121.164 242.56 120.62 242.688 120.172 242.944C119.74 243.2 119.404 243.544 119.164 243.976C118.94 244.392 118.828 244.864 118.828 245.392V251.536C118.828 251.952 118.692 252.304 118.42 252.592C118.148 252.864 117.804 253 117.388 253C116.972 253 116.628 252.864 116.356 252.592C116.084 252.304 115.948 251.952 115.948 251.536V241.624C115.948 241.208 116.084 240.864 116.356 240.592C116.628 240.304 116.972 240.16 117.388 240.16C117.804 240.16 118.148 240.304 118.42 240.592C118.692 240.864 118.828 241.208 118.828 241.624V242.656L118.468 242.584C118.612 242.312 118.82 242.024 119.092 241.72C119.364 241.4 119.684 241.104 120.052 240.832C120.42 240.56 120.836 240.344 121.3 240.184C121.764 240.008 122.268 239.92 122.812 239.92ZM140.997 239.92C141.413 239.92 141.757 240.056 142.029 240.328C142.301 240.6 142.437 240.952 142.437 241.384V251.536C142.437 251.952 142.301 252.304 142.029 252.592C141.757 252.864 141.413 253 140.997 253C140.581 253 140.237 252.864 139.965 252.592C139.693 252.304 139.557 251.952 139.557 251.536V250.36L140.085 250.576C140.085 250.784 139.973 251.04 139.749 251.344C139.525 251.632 139.221 251.92 138.837 252.208C138.453 252.496 137.997 252.744 137.469 252.952C136.957 253.144 136.397 253.24 135.789 253.24C134.685 253.24 133.685 252.96 132.789 252.4C131.893 251.824 131.181 251.04 130.653 250.048C130.141 249.04 129.885 247.888 129.885 246.592C129.885 245.28 130.141 244.128 130.653 243.136C131.181 242.128 131.885 241.344 132.765 240.784C133.645 240.208 134.621 239.92 135.693 239.92C136.381 239.92 137.013 240.024 137.589 240.232C138.165 240.44 138.661 240.704 139.077 241.024C139.509 241.344 139.837 241.672 140.061 242.008C140.301 242.328 140.421 242.6 140.421 242.824L139.557 243.136V241.384C139.557 240.968 139.693 240.624 139.965 240.352C140.237 240.064 140.581 239.92 140.997 239.92ZM136.149 250.6C136.853 250.6 137.469 250.424 137.997 250.072C138.525 249.72 138.933 249.24 139.221 248.632C139.525 248.024 139.677 247.344 139.677 246.592C139.677 245.824 139.525 245.136 139.221 244.528C138.933 243.92 138.525 243.44 137.997 243.088C137.469 242.736 136.853 242.56 136.149 242.56C135.461 242.56 134.853 242.736 134.325 243.088C133.797 243.44 133.381 243.92 133.077 244.528C132.789 245.136 132.645 245.824 132.645 246.592C132.645 247.344 132.789 248.024 133.077 248.632C133.381 249.24 133.797 249.72 134.325 250.072C134.853 250.424 135.461 250.6 136.149 250.6ZM151.123 239.92C151.795 239.92 152.411 240.024 152.971 240.232C153.531 240.44 154.011 240.704 154.411 241.024C154.827 241.344 155.147 241.672 155.371 242.008C155.611 242.328 155.731 242.6 155.731 242.824L155.107 243.136V241.384C155.107 240.968 155.243 240.624 155.515 240.352C155.787 240.064 156.131 239.92 156.547 239.92C156.963 239.92 157.307 240.056 157.579 240.328C157.851 240.6 157.987 240.952 157.987 241.384V252.064C157.987 253.456 157.683 254.568 157.075 255.4C156.483 256.248 155.699 256.856 154.723 257.224C153.747 257.608 152.699 257.8 151.579 257.8C151.259 257.8 150.843 257.76 150.331 257.68C149.819 257.6 149.331 257.504 148.867 257.392C148.403 257.28 148.051 257.176 147.811 257.08C147.331 256.872 146.995 256.608 146.803 256.288C146.627 255.984 146.595 255.656 146.707 255.304C146.851 254.84 147.083 254.52 147.403 254.344C147.723 254.184 148.059 254.168 148.411 254.296C148.571 254.344 148.835 254.44 149.203 254.584C149.571 254.728 149.971 254.856 150.403 254.968C150.851 255.096 151.243 255.16 151.579 255.16C152.779 255.16 153.667 254.92 154.243 254.44C154.819 253.96 155.107 253.296 155.107 252.448V250.36L155.395 250.576C155.395 250.784 155.283 251.04 155.059 251.344C154.851 251.632 154.555 251.92 154.171 252.208C153.803 252.496 153.363 252.744 152.851 252.952C152.339 253.144 151.795 253.24 151.219 253.24C150.083 253.24 149.059 252.96 148.147 252.4C147.235 251.824 146.515 251.04 145.987 250.048C145.459 249.04 145.195 247.888 145.195 246.592C145.195 245.28 145.459 244.128 145.987 243.136C146.515 242.128 147.227 241.344 148.123 240.784C149.019 240.208 150.019 239.92 151.123 239.92ZM151.579 242.56C150.859 242.56 150.227 242.736 149.683 243.088C149.139 243.44 148.715 243.92 148.411 244.528C148.107 245.136 147.955 245.824 147.955 246.592C147.955 247.344 148.107 248.024 148.411 248.632C148.715 249.24 149.139 249.72 149.683 250.072C150.227 250.424 150.859 250.6 151.579 250.6C152.315 250.6 152.955 250.424 153.499 250.072C154.043 249.72 154.467 249.24 154.771 248.632C155.075 248.024 155.227 247.344 155.227 246.592C155.227 245.824 155.075 245.136 154.771 244.528C154.467 243.92 154.043 243.44 153.499 243.088C152.955 242.736 152.315 242.56 151.579 242.56ZM166.919 253.24C165.559 253.24 164.375 252.96 163.367 252.4C162.375 251.824 161.607 251.048 161.063 250.072C160.535 249.096 160.271 247.992 160.271 246.76C160.271 245.32 160.559 244.096 161.135 243.088C161.727 242.064 162.495 241.28 163.439 240.736C164.383 240.192 165.383 239.92 166.439 239.92C167.255 239.92 168.023 240.088 168.743 240.424C169.479 240.76 170.127 241.224 170.687 241.816C171.247 242.392 171.687 243.064 172.007 243.832C172.343 244.6 172.511 245.416 172.511 246.28C172.495 246.664 172.343 246.976 172.055 247.216C171.767 247.456 171.431 247.576 171.047 247.576H161.879L161.159 245.176H169.967L169.439 245.656V245.008C169.407 244.544 169.239 244.128 168.935 243.76C168.647 243.392 168.279 243.104 167.831 242.896C167.399 242.672 166.935 242.56 166.439 242.56C165.959 242.56 165.511 242.624 165.095 242.752C164.679 242.88 164.319 243.096 164.015 243.4C163.711 243.704 163.471 244.112 163.295 244.624C163.119 245.136 163.031 245.784 163.031 246.568C163.031 247.432 163.207 248.168 163.559 248.776C163.927 249.368 164.391 249.824 164.951 250.144C165.527 250.448 166.135 250.6 166.775 250.6C167.367 250.6 167.839 250.552 168.191 250.456C168.543 250.36 168.823 250.248 169.031 250.12C169.255 249.976 169.455 249.856 169.631 249.76C169.919 249.616 170.191 249.544 170.447 249.544C170.799 249.544 171.087 249.664 171.311 249.904C171.551 250.144 171.671 250.424 171.671 250.744C171.671 251.176 171.447 251.568 170.999 251.92C170.583 252.272 169.999 252.584 169.247 252.856C168.495 253.112 167.719 253.24 166.919 253.24ZM182.012 239.92C183.292 239.92 184.236 240.232 184.844 240.856C185.452 241.464 185.852 242.256 186.044 243.232L185.636 243.016L185.828 242.632C186.02 242.264 186.316 241.872 186.716 241.456C187.116 241.024 187.596 240.664 188.156 240.376C188.732 240.072 189.372 239.92 190.076 239.92C191.228 239.92 192.1 240.168 192.692 240.664C193.3 241.16 193.716 241.824 193.94 242.656C194.164 243.472 194.276 244.384 194.276 245.392V251.536C194.276 251.952 194.14 252.304 193.868 252.592C193.596 252.864 193.252 253 192.836 253C192.42 253 192.076 252.864 191.804 252.592C191.532 252.304 191.396 251.952 191.396 251.536V245.392C191.396 244.864 191.332 244.392 191.204 243.976C191.076 243.544 190.844 243.2 190.508 242.944C190.172 242.688 189.692 242.56 189.068 242.56C188.46 242.56 187.94 242.688 187.508 242.944C187.076 243.2 186.748 243.544 186.524 243.976C186.316 244.392 186.212 244.864 186.212 245.392V251.536C186.212 251.952 186.076 252.304 185.804 252.592C185.532 252.864 185.188 253 184.772 253C184.356 253 184.012 252.864 183.74 252.592C183.468 252.304 183.332 251.952 183.332 251.536V245.392C183.332 244.864 183.268 244.392 183.14 243.976C183.012 243.544 182.78 243.2 182.444 242.944C182.108 242.688 181.628 242.56 181.004 242.56C180.396 242.56 179.876 242.688 179.444 242.944C179.012 243.2 178.684 243.544 178.46 243.976C178.252 244.392 178.148 244.864 178.148 245.392V251.536C178.148 251.952 178.012 252.304 177.74 252.592C177.468 252.864 177.124 253 176.708 253C176.292 253 175.948 252.864 175.676 252.592C175.404 252.304 175.268 251.952 175.268 251.536V241.624C175.268 241.208 175.404 240.864 175.676 240.592C175.948 240.304 176.292 240.16 176.708 240.16C177.124 240.16 177.468 240.304 177.74 240.592C178.012 240.864 178.148 241.208 178.148 241.624V242.656L177.788 242.584C177.932 242.312 178.132 242.024 178.388 241.72C178.644 241.4 178.956 241.104 179.324 240.832C179.692 240.56 180.1 240.344 180.548 240.184C180.996 240.008 181.484 239.92 182.012 239.92ZM203.681 253.24C202.321 253.24 201.137 252.96 200.129 252.4C199.137 251.824 198.369 251.048 197.825 250.072C197.297 249.096 197.033 247.992 197.033 246.76C197.033 245.32 197.321 244.096 197.897 243.088C198.489 242.064 199.257 241.28 200.201 240.736C201.145 240.192 202.145 239.92 203.201 239.92C204.017 239.92 204.785 240.088 205.505 240.424C206.241 240.76 206.889 241.224 207.449 241.816C208.009 242.392 208.449 243.064 208.769 243.832C209.105 244.6 209.273 245.416 209.273 246.28C209.257 246.664 209.105 246.976 208.817 247.216C208.529 247.456 208.193 247.576 207.809 247.576H198.641L197.921 245.176H206.729L206.201 245.656V245.008C206.169 244.544 206.001 244.128 205.697 243.76C205.409 243.392 205.041 243.104 204.593 242.896C204.161 242.672 203.697 242.56 203.201 242.56C202.721 242.56 202.273 242.624 201.857 242.752C201.441 242.88 201.081 243.096 200.777 243.4C200.473 243.704 200.233 244.112 200.057 244.624C199.881 245.136 199.793 245.784 199.793 246.568C199.793 247.432 199.969 248.168 200.321 248.776C200.689 249.368 201.153 249.824 201.713 250.144C202.289 250.448 202.897 250.6 203.537 250.6C204.129 250.6 204.601 250.552 204.953 250.456C205.305 250.36 205.585 250.248 205.793 250.12C206.017 249.976 206.217 249.856 206.393 249.76C206.681 249.616 206.953 249.544 207.209 249.544C207.561 249.544 207.849 249.664 208.073 249.904C208.313 250.144 208.433 250.424 208.433 250.744C208.433 251.176 208.209 251.568 207.761 251.92C207.345 252.272 206.761 252.584 206.009 252.856C205.257 253.112 204.481 253.24 203.681 253.24ZM218.893 239.92C220.077 239.92 220.973 240.168 221.581 240.664C222.205 241.16 222.629 241.824 222.853 242.656C223.093 243.472 223.213 244.384 223.213 245.392V251.536C223.213 251.952 223.077 252.304 222.805 252.592C222.533 252.864 222.189 253 221.773 253C221.357 253 221.013 252.864 220.741 252.592C220.469 252.304 220.333 251.952 220.333 251.536V245.392C220.333 244.864 220.261 244.392 220.117 243.976C219.989 243.544 219.749 243.2 219.397 242.944C219.045 242.688 218.541 242.56 217.885 242.56C217.245 242.56 216.701 242.688 216.253 242.944C215.821 243.2 215.485 243.544 215.245 243.976C215.021 244.392 214.909 244.864 214.909 245.392V251.536C214.909 251.952 214.773 252.304 214.501 252.592C214.229 252.864 213.885 253 213.469 253C213.053 253 212.709 252.864 212.437 252.592C212.165 252.304 212.029 251.952 212.029 251.536V241.624C212.029 241.208 212.165 240.864 212.437 240.592C212.709 240.304 213.053 240.16 213.469 240.16C213.885 240.16 214.229 240.304 214.501 240.592C214.773 240.864 214.909 241.208 214.909 241.624V242.656L214.549 242.584C214.693 242.312 214.901 242.024 215.173 241.72C215.445 241.4 215.765 241.104 216.133 240.832C216.501 240.56 216.917 240.344 217.381 240.184C217.845 240.008 218.349 239.92 218.893 239.92ZM226.71 240.4H232.398C232.782 240.4 233.102 240.528 233.358 240.784C233.614 241.04 233.742 241.36 233.742 241.744C233.742 242.112 233.614 242.424 233.358 242.68C233.102 242.92 232.782 243.04 232.398 243.04H226.71C226.326 243.04 226.006 242.912 225.75 242.656C225.494 242.4 225.366 242.08 225.366 241.696C225.366 241.328 225.494 241.024 225.75 240.784C226.006 240.528 226.326 240.4 226.71 240.4ZM229.278 237.4C229.694 237.4 230.03 237.544 230.286 237.832C230.558 238.104 230.694 238.448 230.694 238.864V249.544C230.694 249.768 230.734 249.952 230.814 250.096C230.91 250.24 231.03 250.344 231.174 250.408C231.334 250.472 231.502 250.504 231.678 250.504C231.87 250.504 232.046 250.472 232.206 250.408C232.366 250.328 232.55 250.288 232.758 250.288C232.982 250.288 233.182 250.392 233.358 250.6C233.55 250.808 233.646 251.096 233.646 251.464C233.646 251.912 233.398 252.28 232.902 252.568C232.422 252.856 231.902 253 231.342 253C231.006 253 230.63 252.976 230.214 252.928C229.814 252.864 229.43 252.728 229.062 252.52C228.71 252.296 228.414 251.96 228.174 251.512C227.934 251.064 227.814 250.448 227.814 249.664V238.864C227.814 238.448 227.95 238.104 228.222 237.832C228.51 237.544 228.862 237.4 229.278 237.4Z" fill="#E2E2E2"/>
<circle cx="157" cy="111" r="50" fill="#E2E2E2"/>
<path d="M171 95.25H143C141.067 95.25 139.5 96.817 139.5 98.75V116.25C139.5 118.183 141.067 119.75 143 119.75H171C172.933 119.75 174.5 118.183 174.5 116.25V98.75C174.5 96.817 172.933 95.25 171 95.25Z" stroke="#0B0F15" stroke-width="3" stroke-linecap="round" stroke-linejoin="round"/>
<path d="M150 126.75H164" stroke="#0B0F15" stroke-width="3" stroke-linecap="round" stroke-linejoin="round"/>
<path d="M157 119.75V126.75" stroke="#0B0F15" stroke-width="3" stroke-linecap="round" stroke-linejoin="round"/>
<defs>
<filter id="filter0_d_11310_29" x="0" y="0" width="322" height="329" filterUnits="userSpaceOnUse" color-interpolation-filters="sRGB">
<feFlood flood-opacity="0" result="BackgroundImageFix"/>
<feColorMatrix in="SourceAlpha" type="matrix" values="0 0 0 0 0 0 0 0 0 0 0 0 0 0 0 0 0 0 127 0" result="hardAlpha"/>
<feOffset dx="4" dy="4"/>
<feGaussianBlur stdDeviation="15"/>
<feComposite in2="hardAlpha" operator="out"/>
<feColorMatrix type="matrix" values="0 0 0 0 0 0 0 0 0 0 0 0 0 0 0 0 0 0 0.1 0"/>
<feBlend mode="normal" in2="BackgroundImageFix" result="effect1_dropShadow_11310_29"/>
<feBlend mode="normal" in="SourceGraphic" in2="effect1_dropShadow_11310_29" result="shape"/>
</filter>
</defs>
</svg>
