<svg width="262" height="269" viewBox="0 0 262 269" fill="none" xmlns="http://www.w3.org/2000/svg">
<path d="M118.24 196.968L113.056 209.16C112.944 209.464 112.768 209.704 112.528 209.88C112.304 210.04 112.056 210.12 111.784 210.12C111.352 210.12 111.032 210 110.824 209.76C110.616 209.52 110.512 209.224 110.512 208.872C110.512 208.728 110.536 208.576 110.584 208.416L116.56 194.064C116.688 193.744 116.88 193.496 117.136 193.32C117.408 193.144 117.696 193.072 118 193.104C118.288 193.104 118.552 193.192 118.792 193.368C119.048 193.528 119.232 193.76 119.344 194.064L125.248 208.128C125.328 208.336 125.368 208.528 125.368 208.704C125.368 209.136 125.224 209.48 124.936 209.736C124.664 209.992 124.36 210.12 124.024 210.12C123.736 210.12 123.472 210.032 123.232 209.856C123.008 209.68 122.832 209.44 122.704 209.136L117.544 197.112L118.24 196.968ZM113.8 206.232L115.12 203.472H121.6L122.056 206.232H113.8ZM137.912 192.24C138.328 192.24 138.672 192.376 138.944 192.648C139.216 192.92 139.352 193.272 139.352 193.704V208.536C139.352 208.952 139.216 209.304 138.944 209.592C138.672 209.864 138.328 210 137.912 210C137.496 210 137.152 209.864 136.88 209.592C136.608 209.304 136.472 208.952 136.472 208.536V207.36L137 207.576C137 207.784 136.888 208.04 136.664 208.344C136.44 208.632 136.136 208.92 135.752 209.208C135.368 209.496 134.912 209.744 134.384 209.952C133.872 210.144 133.312 210.24 132.704 210.24C131.6 210.24 130.6 209.96 129.704 209.4C128.808 208.824 128.096 208.04 127.568 207.048C127.056 206.04 126.8 204.888 126.8 203.592C126.8 202.28 127.056 201.128 127.568 200.136C128.096 199.128 128.8 198.344 129.68 197.784C130.56 197.208 131.536 196.92 132.608 196.92C133.296 196.92 133.928 197.024 134.504 197.232C135.08 197.44 135.576 197.704 135.992 198.024C136.424 198.344 136.752 198.672 136.976 199.008C137.216 199.328 137.336 199.6 137.336 199.824L136.472 200.136V193.704C136.472 193.288 136.608 192.944 136.88 192.672C137.152 192.384 137.496 192.24 137.912 192.24ZM133.064 207.6C133.768 207.6 134.384 207.424 134.912 207.072C135.44 206.72 135.848 206.24 136.136 205.632C136.44 205.024 136.592 204.344 136.592 203.592C136.592 202.824 136.44 202.136 136.136 201.528C135.848 200.92 135.44 200.44 134.912 200.088C134.384 199.736 133.768 199.56 133.064 199.56C132.376 199.56 131.768 199.736 131.24 200.088C130.712 200.44 130.296 200.92 129.992 201.528C129.704 202.136 129.56 202.824 129.56 203.592C129.56 204.344 129.704 205.024 129.992 205.632C130.296 206.24 130.712 206.72 131.24 207.072C131.768 207.424 132.376 207.6 133.064 207.6ZM141.966 208.008C141.806 207.784 141.734 207.496 141.75 207.144C141.766 206.792 141.974 206.488 142.374 206.232C142.63 206.072 142.902 206.008 143.19 206.04C143.478 206.056 143.758 206.2 144.03 206.472C144.494 206.936 144.982 207.296 145.494 207.552C146.006 207.808 146.646 207.936 147.414 207.936C147.654 207.92 147.918 207.888 148.206 207.84C148.494 207.776 148.742 207.648 148.95 207.456C149.174 207.248 149.286 206.936 149.286 206.52C149.286 206.168 149.166 205.888 148.926 205.68C148.686 205.472 148.366 205.296 147.966 205.152C147.582 205.008 147.15 204.872 146.67 204.744C146.174 204.6 145.662 204.44 145.134 204.264C144.622 204.088 144.15 203.864 143.718 203.592C143.286 203.304 142.934 202.928 142.662 202.464C142.39 202 142.254 201.416 142.254 200.712C142.254 199.912 142.478 199.232 142.926 198.672C143.374 198.112 143.95 197.68 144.654 197.376C145.374 197.072 146.126 196.92 146.91 196.92C147.406 196.92 147.926 196.984 148.47 197.112C149.014 197.224 149.534 197.416 150.03 197.688C150.526 197.944 150.942 198.288 151.278 198.72C151.454 198.96 151.558 199.248 151.59 199.584C151.622 199.92 151.47 200.224 151.134 200.496C150.894 200.688 150.614 200.776 150.294 200.76C149.974 200.728 149.71 200.616 149.502 200.424C149.23 200.072 148.862 199.792 148.398 199.584C147.95 199.376 147.43 199.272 146.838 199.272C146.598 199.272 146.334 199.304 146.046 199.368C145.774 199.416 145.534 199.536 145.326 199.728C145.118 199.904 145.014 200.192 145.014 200.592C145.014 200.96 145.134 201.256 145.374 201.48C145.614 201.688 145.934 201.864 146.334 202.008C146.75 202.136 147.19 202.264 147.654 202.392C148.134 202.52 148.622 202.672 149.118 202.848C149.614 203.024 150.07 203.256 150.486 203.544C150.902 203.832 151.238 204.208 151.494 204.672C151.75 205.12 151.878 205.696 151.878 206.4C151.878 207.216 151.638 207.912 151.158 208.488C150.678 209.064 150.078 209.504 149.358 209.808C148.638 210.096 147.902 210.24 147.15 210.24C146.206 210.24 145.262 210.08 144.318 209.76C143.374 209.424 142.59 208.84 141.966 208.008Z" fill="#E2E2E2"/>
<circle cx="131" cy="102" r="50" fill="#FFB31A"/>
<path d="M145 93.25H117C115.067 93.25 113.5 94.817 113.5 96.75V116C113.5 117.933 115.067 119.5 117 119.5H145C146.933 119.5 148.5 117.933 148.5 116V96.75C148.5 94.817 146.933 93.25 145 93.25Z" stroke="#0B0F15" stroke-width="3" stroke-linecap="round" stroke-linejoin="round"/>
<path d="M139.75 84.5L131 93.25L122.25 84.5" stroke="#0B0F15" stroke-width="3" stroke-linecap="round" stroke-linejoin="round"/>
<rect x="0.5" y="0.5" width="261" height="268" rx="29.5" stroke="white" stroke-opacity="0.1"/>
</svg>
