<svg width="262" height="269" viewBox="0 0 262 269" fill="none" xmlns="http://www.w3.org/2000/svg">
<path d="M54.6467 193.24C53.5267 193.24 52.5187 193.104 51.6227 192.832C50.7267 192.544 49.8707 192.048 49.0547 191.344C48.8467 191.168 48.6867 190.968 48.5747 190.744C48.4627 190.52 48.4067 190.296 48.4067 190.072C48.4067 189.704 48.5347 189.384 48.7907 189.112C49.0627 188.824 49.3987 188.68 49.7987 188.68C50.1027 188.68 50.3747 188.776 50.6147 188.968C51.2227 189.464 51.8227 189.84 52.4147 190.096C53.0227 190.352 53.7667 190.48 54.6467 190.48C55.2387 190.48 55.7827 190.392 56.2787 190.216C56.7747 190.024 57.1747 189.776 57.4787 189.472C57.7827 189.152 57.9347 188.792 57.9347 188.392C57.9347 187.912 57.7907 187.504 57.5027 187.168C57.2147 186.832 56.7747 186.552 56.1827 186.328C55.5907 186.088 54.8387 185.904 53.9267 185.776C53.0627 185.648 52.3027 185.456 51.6467 185.2C50.9907 184.928 50.4387 184.592 49.9907 184.192C49.5587 183.776 49.2307 183.296 49.0067 182.752C48.7827 182.192 48.6707 181.568 48.6707 180.88C48.6707 179.84 48.9347 178.952 49.4627 178.216C50.0067 177.48 50.7347 176.92 51.6467 176.536C52.5587 176.152 53.5667 175.96 54.6707 175.96C55.7107 175.96 56.6707 176.12 57.5507 176.44C58.4467 176.744 59.1747 177.136 59.7347 177.616C60.1987 177.984 60.4307 178.408 60.4307 178.888C60.4307 179.24 60.2947 179.56 60.0227 179.848C59.7507 180.136 59.4307 180.28 59.0627 180.28C58.8227 180.28 58.6067 180.208 58.4147 180.064C58.1587 179.84 57.8147 179.632 57.3827 179.44C56.9507 179.232 56.4947 179.064 56.0147 178.936C55.5347 178.792 55.0867 178.72 54.6707 178.72C53.9827 178.72 53.3987 178.808 52.9187 178.984C52.4547 179.16 52.1027 179.4 51.8627 179.704C51.6227 180.008 51.5027 180.36 51.5027 180.76C51.5027 181.24 51.6387 181.64 51.9107 181.96C52.1987 182.264 52.6067 182.512 53.1347 182.704C53.6627 182.88 54.2947 183.04 55.0307 183.184C55.9907 183.36 56.8307 183.568 57.5507 183.808C58.2867 184.048 58.8947 184.36 59.3747 184.744C59.8547 185.112 60.2147 185.584 60.4547 186.16C60.6947 186.72 60.8147 187.408 60.8147 188.224C60.8147 189.264 60.5267 190.16 59.9507 190.912C59.3747 191.664 58.6147 192.24 57.6707 192.64C56.7427 193.04 55.7347 193.24 54.6467 193.24ZM69.615 193.24C68.255 193.24 67.071 192.96 66.063 192.4C65.071 191.824 64.303 191.048 63.759 190.072C63.231 189.096 62.967 187.992 62.967 186.76C62.967 185.32 63.255 184.096 63.831 183.088C64.423 182.064 65.191 181.28 66.135 180.736C67.079 180.192 68.079 179.92 69.135 179.92C69.951 179.92 70.719 180.088 71.439 180.424C72.175 180.76 72.823 181.224 73.383 181.816C73.943 182.392 74.383 183.064 74.703 183.832C75.039 184.6 75.207 185.416 75.207 186.28C75.191 186.664 75.039 186.976 74.751 187.216C74.463 187.456 74.127 187.576 73.743 187.576H64.575L63.855 185.176H72.663L72.135 185.656V185.008C72.103 184.544 71.935 184.128 71.631 183.76C71.343 183.392 70.975 183.104 70.527 182.896C70.095 182.672 69.631 182.56 69.135 182.56C68.655 182.56 68.207 182.624 67.791 182.752C67.375 182.88 67.015 183.096 66.711 183.4C66.407 183.704 66.167 184.112 65.991 184.624C65.815 185.136 65.727 185.784 65.727 186.568C65.727 187.432 65.903 188.168 66.255 188.776C66.623 189.368 67.087 189.824 67.647 190.144C68.223 190.448 68.831 190.6 69.471 190.6C70.063 190.6 70.535 190.552 70.887 190.456C71.239 190.36 71.519 190.248 71.727 190.12C71.951 189.976 72.151 189.856 72.327 189.76C72.615 189.616 72.887 189.544 73.143 189.544C73.495 189.544 73.783 189.664 74.007 189.904C74.247 190.144 74.367 190.424 74.367 190.744C74.367 191.176 74.143 191.568 73.695 191.92C73.279 192.272 72.695 192.584 71.943 192.856C71.191 193.112 70.415 193.24 69.615 193.24ZM88.569 179.92C88.985 179.92 89.329 180.056 89.601 180.328C89.873 180.6 90.009 180.952 90.009 181.384V191.536C90.009 191.952 89.873 192.304 89.601 192.592C89.329 192.864 88.985 193 88.569 193C88.153 193 87.809 192.864 87.537 192.592C87.265 192.304 87.129 191.952 87.129 191.536V190.36L87.657 190.576C87.657 190.784 87.545 191.04 87.321 191.344C87.097 191.632 86.793 191.92 86.409 192.208C86.025 192.496 85.569 192.744 85.041 192.952C84.529 193.144 83.969 193.24 83.361 193.24C82.257 193.24 81.257 192.96 80.361 192.4C79.465 191.824 78.753 191.04 78.225 190.048C77.713 189.04 77.457 187.888 77.457 186.592C77.457 185.28 77.713 184.128 78.225 183.136C78.753 182.128 79.457 181.344 80.337 180.784C81.217 180.208 82.193 179.92 83.265 179.92C83.953 179.92 84.585 180.024 85.161 180.232C85.737 180.44 86.233 180.704 86.649 181.024C87.081 181.344 87.409 181.672 87.633 182.008C87.873 182.328 87.993 182.6 87.993 182.824L87.129 183.136V181.384C87.129 180.968 87.265 180.624 87.537 180.352C87.809 180.064 88.153 179.92 88.569 179.92ZM83.721 190.6C84.425 190.6 85.041 190.424 85.569 190.072C86.097 189.72 86.505 189.24 86.793 188.632C87.097 188.024 87.249 187.344 87.249 186.592C87.249 185.824 87.097 185.136 86.793 184.528C86.505 183.92 86.097 183.44 85.569 183.088C85.041 182.736 84.425 182.56 83.721 182.56C83.033 182.56 82.425 182.736 81.897 183.088C81.369 183.44 80.953 183.92 80.649 184.528C80.361 185.136 80.217 185.824 80.217 186.592C80.217 187.344 80.361 188.024 80.649 188.632C80.953 189.24 81.369 189.72 81.897 190.072C82.425 190.424 83.033 190.6 83.721 190.6ZM94.8073 193C94.3913 193 94.0473 192.864 93.7753 192.592C93.5033 192.304 93.3673 191.952 93.3673 191.536V181.624C93.3673 181.208 93.5033 180.864 93.7753 180.592C94.0473 180.304 94.3913 180.16 94.8073 180.16C95.2233 180.16 95.5673 180.304 95.8393 180.592C96.1113 180.864 96.2473 181.208 96.2473 181.624V183.88L96.0793 182.272C96.2553 181.888 96.4793 181.552 96.7513 181.264C97.0393 180.96 97.3593 180.712 97.7113 180.52C98.0633 180.312 98.4393 180.16 98.8393 180.064C99.2393 179.968 99.6393 179.92 100.039 179.92C100.519 179.92 100.919 180.056 101.239 180.328C101.575 180.6 101.743 180.92 101.743 181.288C101.743 181.816 101.607 182.2 101.335 182.44C101.063 182.664 100.767 182.776 100.447 182.776C100.143 182.776 99.8633 182.72 99.6073 182.608C99.3673 182.496 99.0873 182.44 98.7673 182.44C98.4793 182.44 98.1833 182.512 97.8793 182.656C97.5913 182.784 97.3193 182.992 97.0633 183.28C96.8233 183.568 96.6233 183.928 96.4633 184.36C96.3193 184.776 96.2473 185.272 96.2473 185.848V191.536C96.2473 191.952 96.1113 192.304 95.8393 192.592C95.5673 192.864 95.2233 193 94.8073 193ZM109.187 179.92C110.099 179.92 110.891 180.016 111.563 180.208C112.251 180.4 112.779 180.672 113.147 181.024C113.531 181.36 113.723 181.768 113.723 182.248C113.723 182.568 113.627 182.872 113.435 183.16C113.243 183.432 112.963 183.568 112.595 183.568C112.339 183.568 112.123 183.536 111.947 183.472C111.787 183.392 111.643 183.296 111.515 183.184C111.387 183.072 111.235 182.968 111.059 182.872C110.899 182.776 110.651 182.704 110.315 182.656C109.995 182.592 109.755 182.56 109.595 182.56C108.779 182.56 108.083 182.736 107.507 183.088C106.947 183.44 106.515 183.92 106.211 184.528C105.907 185.12 105.755 185.808 105.755 186.592C105.755 187.36 105.907 188.048 106.211 188.656C106.531 189.248 106.963 189.72 107.507 190.072C108.067 190.424 108.707 190.6 109.427 190.6C109.827 190.6 110.171 190.576 110.459 190.528C110.747 190.48 110.987 190.408 111.179 190.312C111.403 190.184 111.603 190.048 111.779 189.904C111.955 189.76 112.219 189.688 112.571 189.688C112.987 189.688 113.307 189.824 113.531 190.096C113.755 190.352 113.867 190.672 113.867 191.056C113.867 191.456 113.643 191.824 113.195 192.16C112.747 192.48 112.155 192.744 111.419 192.952C110.699 193.144 109.915 193.24 109.067 193.24C107.803 193.24 106.707 192.952 105.779 192.376C104.851 191.784 104.131 190.984 103.619 189.976C103.123 188.968 102.875 187.84 102.875 186.592C102.875 185.28 103.139 184.128 103.667 183.136C104.211 182.128 104.955 181.344 105.899 180.784C106.859 180.208 107.955 179.92 109.187 179.92ZM122.927 179.92C124.079 179.92 124.951 180.168 125.543 180.664C126.151 181.16 126.567 181.824 126.791 182.656C127.015 183.472 127.127 184.384 127.127 185.392V191.536C127.127 191.952 126.991 192.304 126.719 192.592C126.447 192.864 126.103 193 125.687 193C125.271 193 124.927 192.864 124.655 192.592C124.383 192.304 124.247 191.952 124.247 191.536V185.392C124.247 184.864 124.183 184.392 124.055 183.976C123.927 183.544 123.695 183.2 123.359 182.944C123.023 182.688 122.543 182.56 121.919 182.56C121.311 182.56 120.791 182.688 120.359 182.944C119.927 183.2 119.599 183.544 119.375 183.976C119.167 184.392 119.063 184.864 119.063 185.392V191.536C119.063 191.952 118.927 192.304 118.655 192.592C118.383 192.864 118.039 193 117.623 193C117.207 193 116.863 192.864 116.591 192.592C116.319 192.304 116.183 191.952 116.183 191.536V176.704C116.183 176.288 116.319 175.944 116.591 175.672C116.863 175.384 117.207 175.24 117.623 175.24C118.039 175.24 118.383 175.384 118.655 175.672C118.927 175.944 119.063 176.288 119.063 176.704V182.656L118.703 182.584C118.847 182.312 119.047 182.024 119.303 181.72C119.559 181.4 119.871 181.104 120.239 180.832C120.607 180.56 121.015 180.344 121.463 180.184C121.911 180.008 122.399 179.92 122.927 179.92ZM139.156 176.2H147.196C147.612 176.2 147.956 176.336 148.228 176.608C148.516 176.864 148.66 177.2 148.66 177.616C148.66 178.016 148.516 178.344 148.228 178.6C147.956 178.84 147.612 178.96 147.196 178.96H140.476L140.692 178.552V183.232L140.5 183.04H146.116C146.532 183.04 146.876 183.176 147.148 183.448C147.436 183.704 147.58 184.04 147.58 184.456C147.58 184.856 147.436 185.184 147.148 185.44C146.876 185.68 146.532 185.8 146.116 185.8H140.572L140.692 185.608V190.456L140.5 190.24H147.196C147.612 190.24 147.956 190.384 148.228 190.672C148.516 190.944 148.66 191.264 148.66 191.632C148.66 192.032 148.516 192.36 148.228 192.616C147.956 192.872 147.612 193 147.196 193H139.156C138.74 193 138.388 192.864 138.1 192.592C137.828 192.304 137.692 191.952 137.692 191.536V177.664C137.692 177.248 137.828 176.904 138.1 176.632C138.388 176.344 138.74 176.2 139.156 176.2ZM158.291 179.92C159.475 179.92 160.371 180.168 160.979 180.664C161.603 181.16 162.027 181.824 162.251 182.656C162.491 183.472 162.611 184.384 162.611 185.392V191.536C162.611 191.952 162.475 192.304 162.203 192.592C161.931 192.864 161.587 193 161.171 193C160.755 193 160.411 192.864 160.139 192.592C159.867 192.304 159.731 191.952 159.731 191.536V185.392C159.731 184.864 159.659 184.392 159.515 183.976C159.387 183.544 159.147 183.2 158.795 182.944C158.443 182.688 157.939 182.56 157.283 182.56C156.643 182.56 156.099 182.688 155.651 182.944C155.219 183.2 154.883 183.544 154.643 183.976C154.419 184.392 154.307 184.864 154.307 185.392V191.536C154.307 191.952 154.171 192.304 153.899 192.592C153.627 192.864 153.283 193 152.867 193C152.451 193 152.107 192.864 151.835 192.592C151.563 192.304 151.427 191.952 151.427 191.536V181.624C151.427 181.208 151.563 180.864 151.835 180.592C152.107 180.304 152.451 180.16 152.867 180.16C153.283 180.16 153.627 180.304 153.899 180.592C154.171 180.864 154.307 181.208 154.307 181.624V182.656L153.947 182.584C154.091 182.312 154.299 182.024 154.571 181.72C154.843 181.4 155.163 181.104 155.531 180.832C155.899 180.56 156.315 180.344 156.779 180.184C157.243 180.008 157.747 179.92 158.291 179.92ZM171.292 179.92C171.964 179.92 172.58 180.024 173.14 180.232C173.7 180.44 174.18 180.704 174.58 181.024C174.996 181.344 175.316 181.672 175.54 182.008C175.78 182.328 175.9 182.6 175.9 182.824L175.276 183.136V181.384C175.276 180.968 175.412 180.624 175.684 180.352C175.956 180.064 176.3 179.92 176.716 179.92C177.132 179.92 177.476 180.056 177.748 180.328C178.02 180.6 178.156 180.952 178.156 181.384V192.064C178.156 193.456 177.852 194.568 177.244 195.4C176.652 196.248 175.868 196.856 174.892 197.224C173.916 197.608 172.868 197.8 171.748 197.8C171.428 197.8 171.012 197.76 170.5 197.68C169.988 197.6 169.5 197.504 169.036 197.392C168.572 197.28 168.22 197.176 167.98 197.08C167.5 196.872 167.164 196.608 166.972 196.288C166.796 195.984 166.764 195.656 166.876 195.304C167.02 194.84 167.252 194.52 167.572 194.344C167.892 194.184 168.228 194.168 168.58 194.296C168.74 194.344 169.004 194.44 169.372 194.584C169.74 194.728 170.14 194.856 170.572 194.968C171.02 195.096 171.412 195.16 171.748 195.16C172.948 195.16 173.836 194.92 174.412 194.44C174.988 193.96 175.276 193.296 175.276 192.448V190.36L175.564 190.576C175.564 190.784 175.452 191.04 175.228 191.344C175.02 191.632 174.724 191.92 174.34 192.208C173.972 192.496 173.532 192.744 173.02 192.952C172.508 193.144 171.964 193.24 171.388 193.24C170.252 193.24 169.228 192.96 168.316 192.4C167.404 191.824 166.684 191.04 166.156 190.048C165.628 189.04 165.364 187.888 165.364 186.592C165.364 185.28 165.628 184.128 166.156 183.136C166.684 182.128 167.396 181.344 168.292 180.784C169.188 180.208 170.188 179.92 171.292 179.92ZM171.748 182.56C171.028 182.56 170.396 182.736 169.852 183.088C169.308 183.44 168.884 183.92 168.58 184.528C168.276 185.136 168.124 185.824 168.124 186.592C168.124 187.344 168.276 188.024 168.58 188.632C168.884 189.24 169.308 189.72 169.852 190.072C170.396 190.424 171.028 190.6 171.748 190.6C172.484 190.6 173.124 190.424 173.668 190.072C174.212 189.72 174.636 189.24 174.94 188.632C175.244 188.024 175.396 187.344 175.396 186.592C175.396 185.824 175.244 185.136 174.94 184.528C174.636 183.92 174.212 183.44 173.668 183.088C173.124 182.736 172.484 182.56 171.748 182.56ZM184.22 191.536C184.22 191.952 184.084 192.304 183.812 192.592C183.54 192.864 183.196 193 182.78 193C182.364 193 182.02 192.864 181.748 192.592C181.476 192.304 181.34 191.952 181.34 191.536V181.624C181.34 181.208 181.476 180.864 181.748 180.592C182.02 180.304 182.364 180.16 182.78 180.16C183.196 180.16 183.54 180.304 183.812 180.592C184.084 180.864 184.22 181.208 184.22 181.624V191.536ZM182.756 178.6C182.212 178.6 181.828 178.512 181.604 178.336C181.38 178.16 181.268 177.848 181.268 177.4V176.944C181.268 176.48 181.388 176.168 181.628 176.008C181.884 175.832 182.268 175.744 182.78 175.744C183.34 175.744 183.732 175.832 183.956 176.008C184.18 176.184 184.292 176.496 184.292 176.944V177.4C184.292 177.864 184.172 178.184 183.932 178.36C183.692 178.52 183.3 178.6 182.756 178.6ZM194.284 179.92C195.468 179.92 196.364 180.168 196.972 180.664C197.596 181.16 198.02 181.824 198.244 182.656C198.484 183.472 198.604 184.384 198.604 185.392V191.536C198.604 191.952 198.468 192.304 198.196 192.592C197.924 192.864 197.58 193 197.164 193C196.748 193 196.404 192.864 196.132 192.592C195.86 192.304 195.724 191.952 195.724 191.536V185.392C195.724 184.864 195.652 184.392 195.508 183.976C195.38 183.544 195.14 183.2 194.788 182.944C194.436 182.688 193.932 182.56 193.276 182.56C192.636 182.56 192.092 182.688 191.644 182.944C191.212 183.2 190.876 183.544 190.636 183.976C190.412 184.392 190.3 184.864 190.3 185.392V191.536C190.3 191.952 190.164 192.304 189.892 192.592C189.62 192.864 189.276 193 188.86 193C188.444 193 188.1 192.864 187.828 192.592C187.556 192.304 187.42 191.952 187.42 191.536V181.624C187.42 181.208 187.556 180.864 187.828 180.592C188.1 180.304 188.444 180.16 188.86 180.16C189.276 180.16 189.62 180.304 189.892 180.592C190.164 180.864 190.3 181.208 190.3 181.624V182.656L189.94 182.584C190.084 182.312 190.292 182.024 190.564 181.72C190.836 181.4 191.156 181.104 191.524 180.832C191.892 180.56 192.308 180.344 192.772 180.184C193.236 180.008 193.74 179.92 194.284 179.92ZM208.005 193.24C206.645 193.24 205.461 192.96 204.453 192.4C203.461 191.824 202.693 191.048 202.149 190.072C201.621 189.096 201.357 187.992 201.357 186.76C201.357 185.32 201.645 184.096 202.221 183.088C202.813 182.064 203.581 181.28 204.525 180.736C205.469 180.192 206.469 179.92 207.525 179.92C208.341 179.92 209.109 180.088 209.829 180.424C210.565 180.76 211.213 181.224 211.773 181.816C212.333 182.392 212.773 183.064 213.093 183.832C213.429 184.6 213.597 185.416 213.597 186.28C213.581 186.664 213.429 186.976 213.141 187.216C212.853 187.456 212.517 187.576 212.133 187.576H202.965L202.245 185.176H211.053L210.525 185.656V185.008C210.493 184.544 210.325 184.128 210.021 183.76C209.733 183.392 209.365 183.104 208.917 182.896C208.485 182.672 208.021 182.56 207.525 182.56C207.045 182.56 206.597 182.624 206.181 182.752C205.765 182.88 205.405 183.096 205.101 183.4C204.797 183.704 204.557 184.112 204.381 184.624C204.205 185.136 204.117 185.784 204.117 186.568C204.117 187.432 204.293 188.168 204.645 188.776C205.013 189.368 205.477 189.824 206.037 190.144C206.613 190.448 207.221 190.6 207.861 190.6C208.453 190.6 208.925 190.552 209.277 190.456C209.629 190.36 209.909 190.248 210.117 190.12C210.341 189.976 210.541 189.856 210.717 189.76C211.005 189.616 211.277 189.544 211.533 189.544C211.885 189.544 212.173 189.664 212.397 189.904C212.637 190.144 212.757 190.424 212.757 190.744C212.757 191.176 212.533 191.568 212.085 191.92C211.669 192.272 211.085 192.584 210.333 192.856C209.581 193.112 208.805 193.24 208.005 193.24ZM77.9505 218.6C77.9505 219.8 77.7505 220.92 77.3505 221.96C76.9505 223 76.3825 223.92 75.6465 224.72C74.9265 225.504 74.0625 226.12 73.0545 226.568C72.0625 227.016 70.9745 227.24 69.7905 227.24C68.6065 227.24 67.5185 227.016 66.5265 226.568C65.5345 226.12 64.6705 225.504 63.9345 224.72C63.2145 223.92 62.6545 223 62.2545 221.96C61.8545 220.92 61.6545 219.8 61.6545 218.6C61.6545 217.4 61.8545 216.28 62.2545 215.24C62.6545 214.2 63.2145 213.288 63.9345 212.504C64.6705 211.704 65.5345 211.08 66.5265 210.632C67.5185 210.184 68.6065 209.96 69.7905 209.96C70.9745 209.96 72.0625 210.184 73.0545 210.632C74.0625 211.08 74.9265 211.704 75.6465 212.504C76.3825 213.288 76.9505 214.2 77.3505 215.24C77.7505 216.28 77.9505 217.4 77.9505 218.6ZM74.8305 218.6C74.8305 217.528 74.6145 216.56 74.1825 215.696C73.7505 214.816 73.1585 214.12 72.4065 213.608C71.6545 213.096 70.7825 212.84 69.7905 212.84C68.7985 212.84 67.9265 213.096 67.1745 213.608C66.4225 214.12 65.8305 214.808 65.3985 215.672C64.9825 216.536 64.7745 217.512 64.7745 218.6C64.7745 219.672 64.9825 220.648 65.3985 221.528C65.8305 222.392 66.4225 223.08 67.1745 223.592C67.9265 224.104 68.7985 224.36 69.7905 224.36C70.7825 224.36 71.6545 224.104 72.4065 223.592C73.1585 223.08 73.7505 222.392 74.1825 221.528C74.6145 220.648 74.8305 219.672 74.8305 218.6ZM87.3535 213.92C88.4735 213.92 89.4735 214.208 90.3535 214.784C91.2495 215.344 91.9535 216.12 92.4655 217.112C92.9935 218.104 93.2575 219.256 93.2575 220.568C93.2575 221.88 92.9935 223.04 92.4655 224.048C91.9535 225.04 91.2575 225.824 90.3775 226.4C89.5135 226.96 88.5375 227.24 87.4495 227.24C86.8095 227.24 86.2095 227.136 85.6495 226.928C85.0895 226.72 84.5935 226.456 84.1615 226.136C83.7455 225.816 83.4175 225.496 83.1775 225.176C82.9535 224.84 82.8415 224.56 82.8415 224.336L83.5855 224.024V230.336C83.5855 230.752 83.4495 231.096 83.1775 231.368C82.9055 231.656 82.5615 231.8 82.1455 231.8C81.7295 231.8 81.3855 231.664 81.1135 231.392C80.8415 231.12 80.7055 230.768 80.7055 230.336V215.624C80.7055 215.208 80.8415 214.864 81.1135 214.592C81.3855 214.304 81.7295 214.16 82.1455 214.16C82.5615 214.16 82.9055 214.304 83.1775 214.592C83.4495 214.864 83.5855 215.208 83.5855 215.624V216.8L83.1775 216.584C83.1775 216.376 83.2895 216.128 83.5135 215.84C83.7375 215.536 84.0415 215.24 84.4255 214.952C84.8095 214.648 85.2495 214.4 85.7455 214.208C86.2575 214.016 86.7935 213.92 87.3535 213.92ZM86.9935 216.56C86.2895 216.56 85.6735 216.736 85.1455 217.088C84.6175 217.44 84.2015 217.92 83.8975 218.528C83.6095 219.12 83.4655 219.8 83.4655 220.568C83.4655 221.32 83.6095 222.008 83.8975 222.632C84.2015 223.24 84.6175 223.72 85.1455 224.072C85.6735 224.424 86.2895 224.6 86.9935 224.6C87.6975 224.6 88.3055 224.424 88.8175 224.072C89.3455 223.72 89.7535 223.24 90.0415 222.632C90.3455 222.008 90.4975 221.32 90.4975 220.568C90.4975 219.8 90.3455 219.12 90.0415 218.528C89.7535 217.92 89.3455 217.44 88.8175 217.088C88.3055 216.736 87.6975 216.56 86.9935 216.56ZM98.7278 225.536C98.7278 225.952 98.5918 226.304 98.3198 226.592C98.0478 226.864 97.7038 227 97.2878 227C96.8718 227 96.5278 226.864 96.2558 226.592C95.9838 226.304 95.8478 225.952 95.8478 225.536V215.624C95.8478 215.208 95.9838 214.864 96.2558 214.592C96.5278 214.304 96.8718 214.16 97.2878 214.16C97.7038 214.16 98.0478 214.304 98.3198 214.592C98.5918 214.864 98.7278 215.208 98.7278 215.624V225.536ZM97.2638 212.6C96.7198 212.6 96.3358 212.512 96.1118 212.336C95.8878 212.16 95.7758 211.848 95.7758 211.4V210.944C95.7758 210.48 95.8958 210.168 96.1358 210.008C96.3918 209.832 96.7758 209.744 97.2878 209.744C97.8478 209.744 98.2398 209.832 98.4638 210.008C98.6878 210.184 98.7998 210.496 98.7998 210.944V211.4C98.7998 211.864 98.6798 212.184 98.4398 212.36C98.1998 212.52 97.8078 212.6 97.2638 212.6ZM108.672 213.92C109.952 213.92 110.896 214.232 111.504 214.856C112.112 215.464 112.512 216.256 112.704 217.232L112.296 217.016L112.488 216.632C112.68 216.264 112.976 215.872 113.376 215.456C113.776 215.024 114.256 214.664 114.816 214.376C115.392 214.072 116.032 213.92 116.736 213.92C117.888 213.92 118.76 214.168 119.352 214.664C119.96 215.16 120.376 215.824 120.6 216.656C120.824 217.472 120.936 218.384 120.936 219.392V225.536C120.936 225.952 120.8 226.304 120.528 226.592C120.256 226.864 119.912 227 119.496 227C119.08 227 118.736 226.864 118.464 226.592C118.192 226.304 118.056 225.952 118.056 225.536V219.392C118.056 218.864 117.992 218.392 117.864 217.976C117.736 217.544 117.504 217.2 117.168 216.944C116.832 216.688 116.352 216.56 115.728 216.56C115.12 216.56 114.6 216.688 114.168 216.944C113.736 217.2 113.408 217.544 113.184 217.976C112.976 218.392 112.872 218.864 112.872 219.392V225.536C112.872 225.952 112.736 226.304 112.464 226.592C112.192 226.864 111.848 227 111.432 227C111.016 227 110.672 226.864 110.4 226.592C110.128 226.304 109.992 225.952 109.992 225.536V219.392C109.992 218.864 109.928 218.392 109.8 217.976C109.672 217.544 109.44 217.2 109.104 216.944C108.768 216.688 108.288 216.56 107.664 216.56C107.056 216.56 106.536 216.688 106.104 216.944C105.672 217.2 105.344 217.544 105.12 217.976C104.912 218.392 104.808 218.864 104.808 219.392V225.536C104.808 225.952 104.672 226.304 104.4 226.592C104.128 226.864 103.784 227 103.368 227C102.952 227 102.608 226.864 102.336 226.592C102.064 226.304 101.928 225.952 101.928 225.536V215.624C101.928 215.208 102.064 214.864 102.336 214.592C102.608 214.304 102.952 214.16 103.368 214.16C103.784 214.16 104.128 214.304 104.4 214.592C104.672 214.864 104.808 215.208 104.808 215.624V216.656L104.448 216.584C104.592 216.312 104.792 216.024 105.048 215.72C105.304 215.4 105.616 215.104 105.984 214.832C106.352 214.56 106.76 214.344 107.208 214.184C107.656 214.008 108.144 213.92 108.672 213.92ZM127.005 225.536C127.005 225.952 126.869 226.304 126.597 226.592C126.325 226.864 125.981 227 125.565 227C125.149 227 124.805 226.864 124.533 226.592C124.261 226.304 124.125 225.952 124.125 225.536V215.624C124.125 215.208 124.261 214.864 124.533 214.592C124.805 214.304 125.149 214.16 125.565 214.16C125.981 214.16 126.325 214.304 126.597 214.592C126.869 214.864 127.005 215.208 127.005 215.624V225.536ZM125.541 212.6C124.997 212.6 124.613 212.512 124.389 212.336C124.165 212.16 124.053 211.848 124.053 211.4V210.944C124.053 210.48 124.173 210.168 124.413 210.008C124.669 209.832 125.053 209.744 125.565 209.744C126.125 209.744 126.517 209.832 126.741 210.008C126.965 210.184 127.077 210.496 127.077 210.944V211.4C127.077 211.864 126.957 212.184 126.717 212.36C126.477 212.52 126.085 212.6 125.541 212.6ZM138.389 224.36C138.773 224.36 139.093 224.488 139.349 224.744C139.605 224.984 139.733 225.296 139.733 225.68C139.733 226.048 139.605 226.36 139.349 226.616C139.093 226.872 138.773 227 138.389 227H130.661C130.261 227 129.941 226.856 129.701 226.568C129.461 226.28 129.349 225.992 129.365 225.704C129.381 225.464 129.413 225.256 129.461 225.08C129.509 224.888 129.629 224.672 129.821 224.432L135.797 216.704L135.749 217.04H130.877C130.493 217.04 130.173 216.912 129.917 216.656C129.661 216.4 129.533 216.08 129.533 215.696C129.533 215.328 129.661 215.024 129.917 214.784C130.173 214.528 130.493 214.4 130.877 214.4H138.269C138.637 214.4 138.949 214.536 139.205 214.808C139.461 215.08 139.573 215.424 139.541 215.84C139.525 216 139.493 216.16 139.445 216.32C139.413 216.48 139.309 216.672 139.133 216.896L133.253 224.504V224.36H138.389ZM152.582 213.92C152.998 213.92 153.342 214.056 153.614 214.328C153.886 214.6 154.022 214.952 154.022 215.384V225.536C154.022 225.952 153.886 226.304 153.614 226.592C153.342 226.864 152.998 227 152.582 227C152.166 227 151.822 226.864 151.55 226.592C151.278 226.304 151.142 225.952 151.142 225.536V224.36L151.67 224.576C151.67 224.784 151.558 225.04 151.334 225.344C151.11 225.632 150.806 225.92 150.422 226.208C150.038 226.496 149.582 226.744 149.054 226.952C148.542 227.144 147.982 227.24 147.374 227.24C146.27 227.24 145.27 226.96 144.374 226.4C143.478 225.824 142.766 225.04 142.238 224.048C141.726 223.04 141.47 221.888 141.47 220.592C141.47 219.28 141.726 218.128 142.238 217.136C142.766 216.128 143.47 215.344 144.35 214.784C145.23 214.208 146.206 213.92 147.278 213.92C147.966 213.92 148.598 214.024 149.174 214.232C149.75 214.44 150.246 214.704 150.662 215.024C151.094 215.344 151.422 215.672 151.646 216.008C151.886 216.328 152.006 216.6 152.006 216.824L151.142 217.136V215.384C151.142 214.968 151.278 214.624 151.55 214.352C151.822 214.064 152.166 213.92 152.582 213.92ZM147.734 224.6C148.438 224.6 149.054 224.424 149.582 224.072C150.11 223.72 150.518 223.24 150.806 222.632C151.11 222.024 151.262 221.344 151.262 220.592C151.262 219.824 151.11 219.136 150.806 218.528C150.518 217.92 150.11 217.44 149.582 217.088C149.054 216.736 148.438 216.56 147.734 216.56C147.046 216.56 146.438 216.736 145.91 217.088C145.382 217.44 144.966 217.92 144.662 218.528C144.374 219.136 144.23 219.824 144.23 220.592C144.23 221.344 144.374 222.024 144.662 222.632C144.966 223.24 145.382 223.72 145.91 224.072C146.438 224.424 147.046 224.6 147.734 224.6ZM157.524 214.4H163.212C163.596 214.4 163.916 214.528 164.172 214.784C164.428 215.04 164.556 215.36 164.556 215.744C164.556 216.112 164.428 216.424 164.172 216.68C163.916 216.92 163.596 217.04 163.212 217.04H157.524C157.14 217.04 156.82 216.912 156.564 216.656C156.308 216.4 156.18 216.08 156.18 215.696C156.18 215.328 156.308 215.024 156.564 214.784C156.82 214.528 157.14 214.4 157.524 214.4ZM160.092 211.4C160.508 211.4 160.844 211.544 161.1 211.832C161.372 212.104 161.508 212.448 161.508 212.864V223.544C161.508 223.768 161.548 223.952 161.628 224.096C161.724 224.24 161.844 224.344 161.988 224.408C162.148 224.472 162.316 224.504 162.492 224.504C162.684 224.504 162.86 224.472 163.02 224.408C163.18 224.328 163.364 224.288 163.572 224.288C163.796 224.288 163.996 224.392 164.172 224.6C164.364 224.808 164.46 225.096 164.46 225.464C164.46 225.912 164.212 226.28 163.716 226.568C163.236 226.856 162.716 227 162.156 227C161.82 227 161.444 226.976 161.028 226.928C160.628 226.864 160.244 226.728 159.876 226.52C159.524 226.296 159.228 225.96 158.988 225.512C158.748 225.064 158.628 224.448 158.628 223.664V212.864C158.628 212.448 158.764 212.104 159.036 211.832C159.324 211.544 159.676 211.4 160.092 211.4ZM170.152 225.536C170.152 225.952 170.016 226.304 169.744 226.592C169.472 226.864 169.128 227 168.712 227C168.296 227 167.952 226.864 167.68 226.592C167.408 226.304 167.272 225.952 167.272 225.536V215.624C167.272 215.208 167.408 214.864 167.68 214.592C167.952 214.304 168.296 214.16 168.712 214.16C169.128 214.16 169.472 214.304 169.744 214.592C170.016 214.864 170.152 215.208 170.152 215.624V225.536ZM168.688 212.6C168.144 212.6 167.76 212.512 167.536 212.336C167.312 212.16 167.2 211.848 167.2 211.4V210.944C167.2 210.48 167.32 210.168 167.56 210.008C167.816 209.832 168.2 209.744 168.712 209.744C169.272 209.744 169.664 209.832 169.888 210.008C170.112 210.184 170.224 210.496 170.224 210.944V211.4C170.224 211.864 170.104 212.184 169.864 212.36C169.624 212.52 169.232 212.6 168.688 212.6ZM185.808 220.592C185.808 221.904 185.512 223.064 184.92 224.072C184.344 225.064 183.56 225.84 182.568 226.4C181.592 226.96 180.496 227.24 179.28 227.24C178.064 227.24 176.96 226.96 175.968 226.4C174.992 225.84 174.208 225.064 173.616 224.072C173.04 223.064 172.752 221.904 172.752 220.592C172.752 219.28 173.04 218.128 173.616 217.136C174.208 216.128 174.992 215.344 175.968 214.784C176.96 214.208 178.064 213.92 179.28 213.92C180.496 213.92 181.592 214.208 182.568 214.784C183.56 215.344 184.344 216.128 184.92 217.136C185.512 218.128 185.808 219.28 185.808 220.592ZM182.928 220.592C182.928 219.776 182.76 219.072 182.424 218.48C182.104 217.872 181.664 217.4 181.104 217.064C180.56 216.728 179.952 216.56 179.28 216.56C178.608 216.56 177.992 216.728 177.432 217.064C176.888 217.4 176.448 217.872 176.112 218.48C175.792 219.072 175.632 219.776 175.632 220.592C175.632 221.392 175.792 222.096 176.112 222.704C176.448 223.296 176.888 223.76 177.432 224.096C177.992 224.432 178.608 224.6 179.28 224.6C179.952 224.6 180.56 224.432 181.104 224.096C181.664 223.76 182.104 223.296 182.424 222.704C182.76 222.096 182.928 221.392 182.928 220.592ZM195.433 213.92C196.617 213.92 197.513 214.168 198.121 214.664C198.745 215.16 199.169 215.824 199.393 216.656C199.633 217.472 199.753 218.384 199.753 219.392V225.536C199.753 225.952 199.617 226.304 199.345 226.592C199.073 226.864 198.729 227 198.313 227C197.897 227 197.553 226.864 197.281 226.592C197.009 226.304 196.873 225.952 196.873 225.536V219.392C196.873 218.864 196.801 218.392 196.657 217.976C196.529 217.544 196.289 217.2 195.937 216.944C195.585 216.688 195.081 216.56 194.425 216.56C193.785 216.56 193.241 216.688 192.793 216.944C192.361 217.2 192.025 217.544 191.785 217.976C191.561 218.392 191.449 218.864 191.449 219.392V225.536C191.449 225.952 191.313 226.304 191.041 226.592C190.769 226.864 190.425 227 190.009 227C189.593 227 189.249 226.864 188.977 226.592C188.705 226.304 188.569 225.952 188.569 225.536V215.624C188.569 215.208 188.705 214.864 188.977 214.592C189.249 214.304 189.593 214.16 190.009 214.16C190.425 214.16 190.769 214.304 191.041 214.592C191.313 214.864 191.449 215.208 191.449 215.624V216.656L191.089 216.584C191.233 216.312 191.441 216.024 191.713 215.72C191.985 215.4 192.305 215.104 192.673 214.832C193.041 214.56 193.457 214.344 193.921 214.184C194.385 214.008 194.889 213.92 195.433 213.92Z" fill="#E2E2E2"/>
<circle cx="131" cy="85" r="50" fill="#FF4646"/>
<g clip-path="url(#clip0_11310_30)">
<path d="M131 90.25C133.899 90.25 136.25 87.8995 136.25 85C136.25 82.1005 133.899 79.75 131 79.75C128.101 79.75 125.75 82.1005 125.75 85C125.75 87.8995 128.101 90.25 131 90.25Z" stroke="#0B0F15" stroke-width="3" stroke-linecap="round" stroke-linejoin="round"/>
<path d="M143.95 90.25C143.717 90.7778 143.648 91.3633 143.75 91.931C143.853 92.4987 144.124 93.0226 144.527 93.435L144.633 93.54C144.958 93.8651 145.216 94.2511 145.392 94.676C145.568 95.1009 145.659 95.5563 145.659 96.0163C145.659 96.4762 145.568 96.9316 145.392 97.3565C145.216 97.7814 144.958 98.1674 144.633 98.4925C144.307 98.8179 143.921 99.0761 143.497 99.2522C143.072 99.4283 142.616 99.519 142.156 99.519C141.696 99.519 141.241 99.4283 140.816 99.2522C140.391 99.0761 140.005 98.8179 139.68 98.4925L139.575 98.3875C139.163 97.9841 138.639 97.7134 138.071 97.6105C137.503 97.5076 136.918 97.577 136.39 97.81C135.872 98.0318 135.431 98.4002 135.12 98.8697C134.809 99.3392 134.642 99.8894 134.64 100.452V100.75C134.64 101.678 134.271 102.568 133.615 103.225C132.958 103.881 132.068 104.25 131.14 104.25C130.212 104.25 129.322 103.881 128.665 103.225C128.009 102.568 127.64 101.678 127.64 100.75V100.592C127.626 100.013 127.439 99.4515 127.102 98.9802C126.765 98.509 126.294 98.15 125.75 97.95C125.222 97.717 124.637 97.6476 124.069 97.7505C123.501 97.8534 122.977 98.1241 122.565 98.5275L122.46 98.6325C122.135 98.9579 121.749 99.2161 121.324 99.3922C120.899 99.5683 120.444 99.659 119.984 99.659C119.524 99.659 119.068 99.5683 118.643 99.3922C118.219 99.2161 117.833 98.9579 117.507 98.6325C117.182 98.3074 116.924 97.9214 116.748 97.4965C116.572 97.0716 116.481 96.6162 116.481 96.1562C116.481 95.6963 116.572 95.2409 116.748 94.816C116.924 94.3911 117.182 94.0051 117.507 93.68L117.612 93.575C118.016 93.1626 118.287 92.6387 118.39 92.071C118.492 91.5033 118.423 90.9178 118.19 90.39C117.968 89.8724 117.6 89.431 117.13 89.12C116.661 88.8091 116.111 88.6422 115.548 88.64H115.25C114.322 88.64 113.432 88.2713 112.775 87.6149C112.119 86.9585 111.75 86.0683 111.75 85.14C111.75 84.2117 112.119 83.3215 112.775 82.6651C113.432 82.0087 114.322 81.64 115.25 81.64H115.407C115.987 81.6265 116.549 81.439 117.02 81.1019C117.491 80.7648 117.85 80.2938 118.05 79.75C118.283 79.2222 118.352 78.6367 118.25 78.069C118.147 77.5013 117.876 76.9774 117.472 76.565L117.368 76.46C117.042 76.1349 116.784 75.7489 116.608 75.324C116.432 74.8991 116.341 74.4437 116.341 73.9837C116.341 73.5238 116.432 73.0684 116.608 72.6435C116.784 72.2186 117.042 71.8326 117.368 71.5075C117.693 71.1821 118.079 70.9239 118.503 70.7478C118.928 70.5717 119.384 70.481 119.844 70.481C120.304 70.481 120.759 70.5717 121.184 70.7478C121.609 70.9239 121.995 71.1821 122.32 71.5075L122.425 71.6125C122.837 72.0159 123.361 72.2866 123.929 72.3895C124.497 72.4924 125.082 72.423 125.61 72.19H125.75C126.268 71.9682 126.709 71.5998 127.02 71.1303C127.331 70.6608 127.498 70.1106 127.5 69.5475V69.25C127.5 68.3217 127.869 67.4315 128.525 66.7751C129.182 66.1187 130.072 65.75 131 65.75C131.928 65.75 132.818 66.1187 133.475 66.7751C134.131 67.4315 134.5 68.3217 134.5 69.25V69.4075C134.502 69.9706 134.669 70.5208 134.98 70.9903C135.291 71.4598 135.732 71.8282 136.25 72.05C136.778 72.283 137.363 72.3524 137.931 72.2495C138.499 72.1466 139.023 71.8759 139.435 71.4725L139.54 71.3675C139.865 71.0421 140.251 70.7839 140.676 70.6078C141.101 70.4317 141.556 70.341 142.016 70.341C142.476 70.341 142.932 70.4317 143.357 70.6078C143.781 70.7839 144.167 71.0421 144.492 71.3675C144.818 71.6926 145.076 72.0786 145.252 72.5035C145.428 72.9284 145.519 73.3838 145.519 73.8438C145.519 74.3037 145.428 74.7591 145.252 75.184C145.076 75.6089 144.818 75.9949 144.492 76.32L144.387 76.425C143.984 76.8374 143.713 77.3613 143.61 77.929C143.508 78.4967 143.577 79.0822 143.81 79.61V79.75C144.032 80.2676 144.4 80.709 144.87 81.02C145.339 81.3309 145.889 81.4978 146.452 81.5H146.75C147.678 81.5 148.568 81.8687 149.225 82.5251C149.881 83.1815 150.25 84.0717 150.25 85C150.25 85.9283 149.881 86.8185 149.225 87.4749C148.568 88.1313 147.678 88.5 146.75 88.5H146.592C146.029 88.5022 145.479 88.6691 145.01 88.98C144.54 89.291 144.172 89.7324 143.95 90.25V90.25Z" stroke="#0B0F15" stroke-width="3" stroke-linecap="round" stroke-linejoin="round"/>
</g>
<rect x="0.5" y="0.5" width="261" height="268" rx="29.5" stroke="white" stroke-opacity="0.1"/>
<defs>
<clipPath id="clip0_11310_30">
<rect width="42" height="42" fill="white" transform="translate(110 64)"/>
</clipPath>
</defs>
</svg>
